<?xml version="1.0" ?><svg height="136px" id="icons__x28_128_x__x_128_x29_" style="enable-background:new 0 0 136 136;" version="1.1" viewBox="0 0 136 136" width="136px" xml:space="preserve" xmlns="http://www.w3.org/2000/svg" xmlns:xlink="http://www.w3.org/1999/xlink"><g><defs><rect height="106" id="SVGID_1_" width="128" x="4" y="15"/></defs><clipPath id="SVGID_2_"><use style="overflow:visible;" xlink:href="#SVGID_1_"/></clipPath><g style="clip-path:url(#SVGID_2_);"><g><g><path d="M87,89c0,0-7,9-7,16s7,16,7,16s7-9,7-16S87,89,87,89z" style="fill:#453F3C;"/><path d="M90,105c0,5-3,9-3,9s-3-4-3-9s3-9,3-9S90,100,90,105z" style="fill:#ED7161;"/><g><path d="M83,107c0-4,8-6,8-10" style="fill:none;stroke:#453F3C;stroke-width:2;stroke-miterlimit:10;"/><path d="M83,113c0-4,8-6,8-10" style="fill:none;stroke:#453F3C;stroke-width:2;stroke-miterlimit:10;"/></g><g><defs><path d="M90,105c0,5-3,9-3,9s-3-4-3-9s3-9,3-9S90,100,90,105z" id="SVGID_3_"/></defs><clipPath id="SVGID_4_"><use style="overflow:visible;" xlink:href="#SVGID_3_"/></clipPath><rect height="5" style="opacity:0.2;clip-path:url(#SVGID_4_);" width="6" x="84" y="95"/></g></g><g><path d="M85,96c-2.2,0-4-1.8-4-4v-4c0-2.2,1.8-4,4-4h4c2.2,0,4,1.8,4,4v4c0,2.2-1.8,4-4,4H85z" style="fill:#453F3C;"/><path d="M89,91c0,0.6-0.4,1-1,1h-2c-0.6,0-1-0.4-1-1v-2c0-0.6,0.4-1,1-1h2c0.6,0,1,0.4,1,1V91z" style="fill:#C95F53;"/><g><defs><path d="M89,91c0,0.6-0.4,1-1,1h-2c-0.6,0-1-0.4-1-1v-2c0-0.6,0.4-1,1-1h2c0.6,0,1,0.4,1,1V91z" id="SVGID_5_"/></defs><clipPath id="SVGID_6_"><use style="overflow:visible;" xlink:href="#SVGID_5_"/></clipPath><rect height="3" style="opacity:0.2;clip-path:url(#SVGID_6_);" width="6" x="84" y="87"/></g></g></g><g><polygon points="105,85 105,71 31,75 31,89    " style="fill:#453F3C;"/><polygon points="35,85 101,81 101,75 35,79    " style="fill:#ED7161;"/><g><defs><polygon id="SVGID_7_" points="35,85 101,81 101,75 35,79      "/></defs><clipPath id="SVGID_8_"><use style="overflow:visible;" xlink:href="#SVGID_7_"/></clipPath><rect height="3" style="opacity:0.2;clip-path:url(#SVGID_8_);" width="66" x="35" y="78"/><g style="mix-blend-mode:overlay;clip-path:url(#SVGID_8_);"><rect height="6" style="opacity:0.24;fill:#FFFFFF;" width="2" x="44" y="81"/><rect height="6" style="opacity:0.24;fill:#FFFFFF;" width="1" x="48" y="81"/></g></g></g><g><path d="M57,71c-12.1,0-22-9.9-22-22V37c0-12.1,9.9-22,22-22h22c12.1,0,22,9.9,22,22v12     c0,12.1-9.9,22-22,22H57z" style="fill:#453F3C;"/><path d="M79,67H57c-9.9,0-18-8.1-18-18V37c0-9.9,8.1-18,18-18h22c9.9,0,18,8.1,18,18v12     C97,58.9,88.9,67,79,67z" style="fill:#56514E;"/><g><defs><path d="M79,67H57c-9.9,0-18-8.1-18-18V37c0-9.9,8.1-18,18-18h22c9.9,0,18,8.1,18,18v12C97,58.9,88.9,67,79,67z" id="SVGID_9_"/></defs><clipPath id="SVGID_10_"><use style="overflow:visible;" xlink:href="#SVGID_9_"/></clipPath><path d="M0,83v-8c0-28.7,30.5-52,68-52s68,23.3,68,52v8H0z" style="opacity:0.14;clip-path:url(#SVGID_10_);"/><rect height="3" style="mix-blend-mode:overlay;opacity:0.2;clip-path:url(#SVGID_10_);fill:#FFFFFF;" width="40" x="48" y="18"/></g></g><g><path d="M4,79v-4c0-26.5,28.7-48,64-48s64,21.5,64,48v4H4z" style="fill:#453F3C;"/><path d="M8,75c0-24.3,26.9-44,60-44s60,19.7,60,44H8z" style="fill:#686360;"/><g><defs><path d="M8,75c0-24.3,26.9-44,60-44s60,19.7,60,44H8z" id="SVGID_11_"/></defs><clipPath id="SVGID_12_"><use style="overflow:visible;" xlink:href="#SVGID_11_"/></clipPath><ellipse cx="68" cy="75" rx="52" ry="36" style="clip-path:url(#SVGID_12_);fill:none;stroke:#453F3C;stroke-miterlimit:10;stroke-dasharray:4;"/></g><path d="M29,49c10.3-7.6,24.2-12,39-12s28.7,4.4,39,12c9.8,7.2,15,16.2,15,26h6     c0-24.3-26.9-44-60-44S8,50.7,8,75h6C14,65.2,19.2,56.2,29,49z" style="mix-blend-mode:overlay;opacity:0.24;fill:#FFFFFF;"/><g><path d="M68,35c30.9,0,56,17.9,56,40h4c0-24.3-26.9-44-60-44S8,50.7,8,75h4C12,52.9,37.1,35,68,35z" style="fill:#453F3C;"/><path d="M68,33c32,0,58,18.8,58,42h2c0-24.3-26.9-44-60-44S8,50.7,8,75h2C10,51.8,36,33,68,33z" style="fill:#EACE8F;"/></g><path d="M68,32c32.5,0,59,19.3,59,43h1c0-24.3-26.9-44-60-44S8,50.7,8,75h1     C9,51.3,35.5,32,68,32z" style="mix-blend-mode:overlay;opacity:0.24;fill:#FFFFFF;"/><g><g><path d="M57.4,71.8c-0.8-0.8-1.3-1.8-1.4-2.8c-1-0.1-2-0.6-2.8-1.4c-1.9-1.9-1.9-5.1,0-7.1       c1.7-1.7,4.4-2,6.4-0.7l11.3-11.3c-1.3-1.9-1-4.7,0.7-6.4c1.9-1.9,5.1-1.9,7.1,0c0.8,0.8,1.3,1.8,1.4,2.8c1,0.1,2,0.6,2.8,1.4       c1.9,1.9,1.9,5.1,0,7.1c-1.7,1.7-4.4,2-6.4,0.7L65.2,65.5c1.3,2,1,4.7-0.7,6.4C62.5,73.8,59.3,73.8,57.4,71.8z" style="fill:#453F3C;"/><path d="M63.1,66.2c-0.7-0.7-0.4-1,0-1.4l12.7-12.7c0.4-0.4,0.7-0.7,1.4,0c1.2,1.2,3.1,1.2,4.2,0       s1.2-3.1,0-4.2c-1.2-1.2-3.1-1.2-4.2,0c1.2-1.2,1.2-3.1,0-4.2c-1.2-1.2-3.1-1.2-4.2,0s-1.2,3.1,0,4.2c0.4,0.4,0.4,1,0,1.4       L60.2,61.9c-0.4,0.4-1,0.4-1.4,0c-1.2-1.2-3.1-1.2-4.2,0s-1.2,3.1,0,4.2c1.2,1.2,3.1,1.2,4.2,0c-1.2,1.2-1.2,3.1,0,4.2       c1.2,1.2,3.1,1.2,4.2,0C64.2,69.3,64.2,67.4,63.1,66.2z" style="fill:#E2E0E0;"/></g><g><path d="M78.6,71.8c0.8-0.8,1.3-1.8,1.4-2.8c1-0.1,2-0.6,2.8-1.4c1.9-1.9,1.9-5.1,0-7.1       c-1.7-1.7-4.4-2-6.4-0.7L65.2,48.5c1.3-1.9,1-4.7-0.7-6.4c-1.9-1.9-5.1-1.9-7.1,0c-0.8,0.8-1.3,1.8-1.4,2.8       c-1,0.1-2,0.6-2.8,1.4c-1.9,1.9-1.9,5.1,0,7.1c1.7,1.7,4.4,2,6.4,0.7l11.3,11.3c-1.3,2-1,4.7,0.7,6.4       C73.5,73.8,76.7,73.8,78.6,71.8z" style="fill:#453F3C;"/><path d="M72.9,66.2c0.7-0.7,0.4-1,0-1.4L60.2,52.1c-0.4-0.4-0.7-0.7-1.4,0c-1.2,1.2-3.1,1.2-4.2,0       s-1.2-3.1,0-4.2c1.2-1.2,3.1-1.2,4.2,0c-1.2-1.2-1.2-3.1,0-4.2c1.2-1.2,3.1-1.2,4.2,0c1.2,1.2,1.2,3.1,0,4.2       c-0.4,0.4-0.4,1,0,1.4l12.7,12.7c0.4,0.4,1,0.4,1.4,0c1.2-1.2,3.1-1.2,4.2,0s1.2,3.1,0,4.2c-1.2,1.2-3.1,1.2-4.2,0       c1.2,1.2,1.2,3.1,0,4.2c-1.2,1.2-3.1,1.2-4.2,0S71.8,67.4,72.9,66.2z" style="fill:#E2E0E0;"/></g></g><g><defs><path d="M14,75c0-9.8,5.2-18.8,15-26c10.3-7.6,24.2-12,39-12s28.7,4.4,39,12c9.8,7.2,15,16.2,15,26H14z" id="SVGID_13_"/></defs><clipPath id="SVGID_14_"><use style="overflow:visible;" xlink:href="#SVGID_13_"/></clipPath><g style="mix-blend-mode:overlay;clip-path:url(#SVGID_14_);"><rect height="38" style="opacity:0.24;fill:#FFFFFF;" width="2" x="87" y="37"/><rect height="38" style="opacity:0.24;fill:#FFFFFF;" width="1" x="91" y="37"/></g></g></g></g></g></svg>