<?xml version="1.0" standalone="no"?>
<!DOCTYPE svg PUBLIC "-//W3C//DTD SVG 20010904//EN"
 "http://www.w3.org/TR/2001/REC-SVG-20010904/DTD/svg10.dtd">
<svg version="1.0" xmlns="http://www.w3.org/2000/svg"
 width="700.000000pt" height="700.000000pt" viewBox="0 0 700.000000 700.000000"
 preserveAspectRatio="xMidYMid meet">
<metadata>
Created by potrace 1.14, written by Peter Selinger 2001-2017
</metadata>
<g transform="translate(0.000000,700.000000) scale(0.100000,-0.100000)"
fill="#000000" stroke="none">
<path d="M2805 6219 c-101 -13 -155 -26 -242 -55 -86 -28 -211 -94 -288 -151
-165 -122 -282 -263 -362 -433 -53 -111 -72 -169 -91 -275 -7 -40 -9 -41 -137
-105 -175 -89 -210 -109 -355 -204 -180 -119 -317 -230 -465 -380 -151 -153
-165 -168 -249 -284 -136 -186 -240 -383 -307 -582 -77 -230 -96 -353 -98
-626 l-2 -190 691 0 c453 1 690 -2 691 -9 1 -5 2 -120 3 -255 l1 -245 75 1
c67 1 157 5 415 19 44 2 132 7 195 10 63 3 140 7 170 10 30 2 111 7 180 10 69
3 152 8 185 10 33 2 119 6 190 10 72 3 155 8 185 10 30 2 114 7 185 10 72 3
159 8 195 10 63 5 197 12 369 20 46 2 121 7 168 10 79 5 83 5 75 -12 -15 -27
-15 -295 -1 -343 7 -21 29 -56 49 -77 28 -27 35 -41 29 -52 -52 -93 -118 -280
-133 -376 -8 -50 -9 -161 -1 -200 34 -175 103 -335 233 -545 71 -114 111 -170
121 -170 3 0 27 30 52 68 198 288 299 534 304 737 1 49 -2 105 -7 125 -5 19
-11 46 -14 60 -3 14 -16 57 -30 95 -14 39 -31 86 -37 105 -6 19 -14 37 -18 40
-3 3 -14 20 -23 39 -18 33 -18 33 11 65 67 71 68 76 68 251 -1 133 -4 166 -18
193 l-18 32 38 1 c21 1 58 2 83 4 158 9 269 16 370 21 63 3 126 7 140 9 l25 2
1 144 c1 79 2 149 3 154 1 7 239 10 692 9 l691 0 -5 225 c-3 179 -9 249 -27
336 -69 342 -241 692 -479 970 -71 83 -299 302 -380 365 -188 147 -346 248
-571 363 l-143 73 -13 59 c-30 147 -104 313 -193 433 -187 252 -428 400 -746
458 -50 10 -1362 12 -1430 3z"/>
</g>
</svg>
